<?xml version="1.0" standalone="no"?>
<!DOCTYPE svg PUBLIC "-//W3C//DTD SVG 20010904//EN"
 "http://www.w3.org/TR/2001/REC-SVG-20010904/DTD/svg10.dtd">
<svg version="1.0" xmlns="http://www.w3.org/2000/svg"
 width="840.000000pt" height="533.000000pt" viewBox="0 0 840.000000 533.000000"
 preserveAspectRatio="xMidYMid meet">

<g transform="translate(0.000000,533.000000) scale(0.100000,-0.100000)"
fill="#000000" stroke="none">
<path d="M2402 4915 c-74 -32 -180 -157 -203 -239 l-9 -34 -78 -8 c-98 -9
-756 12 -972 31 -91 8 -247 24 -348 36 -101 11 -185 19 -186 17 -2 -1 1 -95 7
-208 11 -248 -3 -734 -33 -1050 -40 -442 -117 -918 -206 -1280 -25 -101 -50
-220 -56 -265 -9 -65 -12 -466 -4 -660 1 -38 0 -40 -32 -43 -18 -2 -35 -9 -37
-15 -18 -49 -54 -720 -42 -768 7 -29 86 -80 169 -108 77 -27 269 -58 453 -73
231 -20 1056 -15 1780 10 1043 37 1252 42 1745 42 729 0 1360 24 1770 65 635
65 1589 281 1912 433 143 67 168 103 168 244 0 113 -54 392 -94 488 -8 20 -35
64 -61 99 -25 34 -51 74 -57 87 -11 24 -19 28 -49 25 -10 -1 -41 23 -70 54
-107 114 -231 145 -575 145 -111 0 -259 -5 -331 -11 -125 -10 -132 -10 -223
15 -52 14 -95 24 -97 22 -11 -10 35 -65 58 -70 21 -4 26 -9 22 -28 -7 -38 72
-134 191 -234 59 -49 120 -95 137 -102 52 -22 32 -52 -35 -52 -18 0 -93 -11
-167 -24 -696 -126 -1592 -222 -2599 -278 -300 -17 -2093 -16 -2735 1 -720 19
-1132 35 -1141 44 -5 4 -8 155 -9 335 0 360 0 357 70 647 157 647 242 1427
234 2143 l-4 313 35 -6 c58 -9 414 -43 585 -56 175 -14 917 -18 1165 -7 85 3
206 12 268 19 l112 12 40 -32 c32 -25 112 -60 140 -61 11 0 -90 94 -129 120
-39 27 -48 29 -105 23 l-63 -6 -46 59 c-26 33 -65 85 -88 117 -57 81 -108 102
-177 72z m96 -63 c30 -32 135 -168 140 -181 2 -5 -55 -11 -125 -15 -70 -4
-158 -9 -195 -12 -63 -6 -68 -5 -68 13 0 30 72 135 116 169 80 63 95 66 132
26z m5096 -2978 c49 -8 109 -23 132 -34 42 -18 144 -104 144 -121 0 -19 -263
-102 -521 -165 l-188 -46 -100 77 c-160 123 -295 254 -278 272 18 17 437 41
627 35 52 -2 135 -10 184 -18z m359 -198 c3 -7 29 -45 57 -84 44 -60 57 -89
81 -177 34 -127 59 -291 59 -383 0 -97 -19 -128 -105 -174 -204 -107 -816
-268 -1421 -372 -179 -32 -427 -67 -432 -62 -2 2 -10 50 -18 107 -16 115 -94
511 -125 631 -31 123 -39 113 114 133 453 58 891 137 1237 221 181 44 456 130
509 159 33 18 38 18 44 1z m-1989 -414 c11 -19 109 -483 102 -489 -13 -13
-741 -81 -1101 -103 -244 -14 -848 -28 -1720 -40 -418 -5 -879 -12 -1025 -15
-146 -2 -461 -7 -700 -10 -239 -3 -478 -7 -530 -10 -136 -7 -361 10 -468 35
l-92 22 0 208 0 209 -37 7 c-108 19 -108 19 -106 48 1 16 4 31 7 33 3 3 241
-2 528 -11 1048 -32 1369 -38 2203 -39 868 -2 1002 2 1645 43 326 21 856 69
1110 99 85 10 160 19 167 20 6 0 14 -3 17 -7z m-5614 -228 l32 -7 -4 -318 c-1
-174 -6 -321 -10 -325 -9 -8 -61 12 -93 38 -24 18 -25 25 -25 123 0 104 15
374 26 453 6 45 11 48 74 36z m5749 -406 c24 -134 32 -201 24 -209 -9 -8 -334
-33 -643 -50 -107 -5 -600 -14 -1095 -19 -495 -5 -1010 -14 -1145 -19 -1223
-49 -2151 -60 -2470 -28 -96 9 -213 25 -260 35 l-85 17 2 103 c1 57 3 105 5
107 2 1 44 -6 93 -17 124 -28 489 -33 1215 -19 311 6 934 16 1385 21 983 12
1556 25 1880 45 221 14 805 64 970 84 122 15 111 19 124 -51z"/>
<path d="M3060 4468 c-30 -11 -76 -36 -101 -54 -60 -44 -139 -136 -139 -163 0
-26 33 -92 55 -111 32 -27 136 -6 325 65 l35 13 6 -36 c3 -25 32 -75 87 -150
l82 -113 -47 -20 c-90 -37 -116 -54 -179 -117 -53 -52 -64 -69 -64 -96 0 -36
45 -107 79 -126 29 -15 146 4 250 40 47 17 104 30 126 30 39 0 44 -3 89 -66
l47 -65 -31 -36 c-17 -19 -57 -74 -89 -122 -31 -48 -67 -100 -80 -117 -22 -30
-22 -31 -6 -95 9 -35 21 -70 27 -76 12 -15 64 -17 72 -4 11 17 141 98 224 140
l81 41 28 -36 c58 -75 144 -173 165 -188 l22 -16 -24 -17 c-48 -31 -126 -119
-148 -164 -32 -66 -29 -116 11 -175 29 -44 36 -49 68 -48 51 1 159 58 239 125
38 33 75 59 80 59 6 0 35 -18 64 -40 37 -28 63 -40 85 -40 27 0 32 -3 26 -17
-3 -10 -15 -56 -26 -103 -10 -47 -26 -111 -36 -143 -15 -53 -15 -60 0 -92 17
-35 50 -58 103 -69 25 -6 39 0 80 30 68 50 110 109 139 194 44 130 31 158 -99
214 -93 40 -117 43 -136 21 -12 -14 -18 -11 -143 76 -5 4 -4 16 3 28 25 48
-35 132 -130 181 -36 18 -46 20 -78 9 -36 -12 -36 -12 -81 37 -58 64 -161 195
-161 204 0 4 7 10 15 14 9 3 19 16 24 28 17 44 -42 149 -112 199 -36 26 -48
30 -84 25 l-42 -5 -50 69 c-30 40 -51 80 -51 95 0 67 -115 226 -174 241 -14 3
-26 9 -26 13 0 3 -45 67 -99 141 l-99 135 32 10 c23 7 32 17 34 37 4 37 -40
120 -97 178 -55 58 -81 62 -171 28z m137 -107 c19 -24 32 -48 31 -53 -2 -5
-28 -19 -58 -30 -30 -11 -84 -31 -120 -44 -75 -27 -122 -30 -140 -9 -24 29 80
131 169 166 63 25 80 21 118 -30z m314 -584 l30 -41 -93 -33 c-121 -43 -198
-56 -218 -37 -12 12 -10 18 15 44 15 16 45 41 66 56 39 27 148 65 162 57 5 -3
22 -23 38 -46z m348 -382 c17 -20 31 -42 31 -49 0 -8 -37 -33 -82 -57 -46 -23
-111 -59 -145 -80 -35 -21 -63 -36 -63 -35 0 2 31 50 69 108 63 95 115 147
147 148 7 0 26 -16 43 -35z m418 -500 l28 -25 -45 -41 c-63 -57 -191 -140
-209 -137 -18 4 -25 30 -17 62 14 55 142 166 192 166 13 0 36 -11 51 -25z
m396 -291 c18 -9 34 -18 36 -20 1 -1 -7 -32 -19 -68 -14 -44 -34 -78 -61 -105
-40 -43 -87 -57 -74 -23 3 9 15 55 26 102 10 47 21 95 24 108 6 26 24 28 68 6z"/>
<path d="M1530 3775 c-161 -36 -284 -107 -393 -225 -74 -80 -144 -208 -168
-310 -19 -76 -16 -240 4 -320 52 -199 193 -368 382 -460 108 -53 197 -73 325
-73 133 0 218 20 340 80 78 39 110 62 181 133 71 71 93 101 132 180 149 305
73 637 -195 852 -68 55 -176 109 -263 133 -85 23 -264 28 -345 10z"/>
<path d="M4852 2500 c24 -42 92 -80 142 -80 23 0 25 -4 31 -65 4 -36 4 -103 0
-149 -8 -102 -1 -119 62 -140 70 -24 129 -21 147 7 33 53 73 306 56 353 -14
35 -68 73 -137 94 -107 33 -153 25 -153 -28 0 -28 -13 -25 -102 19 -32 16 -60
29 -63 29 -3 0 5 -18 17 -40z m337 -106 c11 -10 12 -26 2 -91 -17 -118 -29
-155 -49 -151 -14 3 -17 21 -18 140 l-2 137 27 -12 c14 -6 32 -16 40 -23z"/>
<path d="M5430 2267 c26 -44 51 -53 85 -31 14 9 25 18 25 19 0 2 -24 11 -52
21 -29 9 -59 19 -66 22 -8 3 -4 -10 8 -31z"/>
<path d="M5571 2281 c-19 -19 -21 -29 -15 -74 9 -74 53 -238 70 -264 30 -47
123 -70 173 -44 24 13 61 109 61 160 0 50 -25 132 -51 165 -30 38 -89 65 -158
72 -51 6 -61 4 -80 -15z m130 -97 c36 -18 59 -67 59 -124 0 -56 -15 -83 -39
-70 -24 12 -76 210 -56 210 4 0 20 -7 36 -16z"/>
<path d="M6153 2099 c-21 -21 -15 -57 23 -140 19 -44 38 -95 41 -114 11 -68
90 -103 165 -72 50 21 94 109 84 168 -13 82 -31 108 -93 136 -68 31 -199 44
-220 22z m184 -110 c27 -10 39 -61 23 -100 -26 -61 -48 -33 -88 109 -4 14 8
12 65 -9z"/>
<path d="M6030 2092 c0 -5 6 -16 13 -26 12 -16 16 -17 35 -5 28 17 28 25 0 33
-32 8 -48 7 -48 -2z"/>
</g>
</svg>
