<?xml version="1.0" standalone="no"?>
<!DOCTYPE svg PUBLIC "-//W3C//DTD SVG 20010904//EN"
 "http://www.w3.org/TR/2001/REC-SVG-20010904/DTD/svg10.dtd">
<svg version="1.0" xmlns="http://www.w3.org/2000/svg"
 width="600.000000pt" height="600.000000pt" viewBox="0 0 600.000000 600.000000"
 preserveAspectRatio="xMidYMid meet">

<g transform="translate(0.000000,600.000000) scale(0.100000,-0.100000)"
fill="#000000" stroke="none">
<path d="M2485 5043 c-89 -7 -277 -36 -388 -59 -246 -52 -594 -185 -752 -289
l-40 -26 35 6 c231 41 397 67 450 70 36 2 99 13 140 24 150 40 416 71 615 71
75 0 420 52 433 65 7 7 -78 91 -125 123 -29 20 -42 22 -180 20 -81 -1 -166 -3
-188 -5z"/>
<path d="M5465 4973 c66 -34 92 -55 126 -102 104 -141 57 -436 -106 -666 -86
-121 -274 -280 -437 -369 l-66 -37 -30 44 c-36 52 -147 157 -167 157 -34 0
-274 -86 -909 -324 -664 -250 -1017 -341 -1418 -366 -527 -34 -1011 120 -1462
463 -125 95 -226 187 -226 205 0 17 68 220 128 379 l30 83 -40 -21 c-22 -11
-105 -70 -184 -130 -80 -60 -150 -107 -155 -104 -5 4 -9 0 -9 -8 0 -7 -18 -30
-39 -49 -36 -32 -40 -42 -52 -112 -11 -68 -15 -75 -26 -60 -23 32 -34 2 -31
-82 3 -68 5 -79 21 -78 15 2 17 -8 17 -78 0 -43 5 -109 10 -146 6 -37 11 -117
13 -179 1 -73 6 -116 15 -125 9 -9 12 -9 12 5 0 33 16 16 29 -30 l12 -48 18
40 17 40 13 -65 c15 -82 40 -161 55 -177 6 -6 88 -23 181 -38 94 -14 224 -34
290 -46 143 -24 316 -35 676 -44 l266 -7 27 34 27 33 -19 -40 c-44 -88 -127
-225 -188 -306 -57 -77 -102 -165 -90 -176 5 -6 54 41 84 81 20 26 22 26 22 8
0 -55 -24 -185 -47 -252 -14 -41 -25 -83 -25 -94 2 -36 -88 -141 -158 -185
-69 -44 -136 -48 -240 -16 -47 15 -117 44 -157 66 l-72 39 -6 -43 c-3 -23 -5
-76 -3 -117 l3 -75 141 -9 141 -8 7 -119 c4 -65 9 -125 12 -133 8 -22 25 -25
158 -32 l122 -7 10 59 c8 54 10 57 25 41 9 -9 18 -14 20 -12 2 2 55 -14 117
-34 l113 -38 -53 -6 c-29 -4 -90 -7 -135 -7 -45 0 -84 -4 -87 -9 -9 -13 5 -71
15 -65 5 3 9 0 9 -6 0 -6 4 -8 10 -5 5 3 10 1 10 -5 0 -6 4 -9 9 -6 13 8 155
-25 163 -38 5 -7 8 -6 8 3 0 10 3 11 14 2 11 -9 15 -9 19 1 3 8 6 5 6 -6 2
-42 21 2 27 62 l7 62 56 -3 c70 -5 190 -27 213 -38 11 -6 18 -28 23 -73 l7
-64 87 -8 c142 -13 195 -11 198 6 1 8 4 35 8 60 l5 45 136 -6 c99 -5 139 -10
145 -20 5 -8 9 -35 9 -61 0 -45 13 -71 23 -46 3 7 6 9 6 3 1 -6 42 -9 108 -8
60 2 118 3 130 3 19 0 22 7 28 64 l7 65 37 5 c20 3 74 8 121 12 47 3 93 8 102
9 19 4 24 -7 34 -78 l6 -48 62 6 c33 4 95 12 136 19 83 12 78 6 95 119 l6 37
114 2 c63 1 127 2 143 2 24 1 28 -3 33 -39 3 -22 7 -36 8 -31 0 5 7 3 15 -3 8
-7 16 -8 18 -4 1 5 48 23 103 40 l100 32 -76 1 c-42 0 -97 3 -123 6 -41 6 -46
9 -46 33 0 53 11 66 74 94 35 16 95 52 134 82 l71 53 5 -37 c3 -20 8 -75 11
-123 7 -88 14 -101 41 -73 9 8 27 15 40 15 14 0 23 4 20 9 -3 4 7 14 22 20 15
7 55 30 88 52 54 35 63 46 73 84 22 86 27 82 -116 90 -71 3 -134 8 -140 10
-18 6 -4 35 16 35 12 0 13 2 3 9 -9 5 -11 17 -6 35 4 17 0 51 -11 85 l-17 58
-142 -72 c-158 -80 -311 -133 -478 -167 -93 -18 -146 -22 -303 -22 -207 0
-257 8 -403 64 -195 75 -467 319 -628 563 -36 55 -64 101 -61 103 2 3 63 -74
135 -170 l132 -175 67 26 c38 14 75 27 83 30 8 2 46 -8 84 -22 l69 -26 36 30
c20 16 35 35 33 43 -2 7 -44 109 -94 226 l-92 213 -133 115 c-135 117 -173
156 -84 85 l50 -39 123 -6 c68 -3 484 -16 926 -27 763 -21 808 -21 920 -5 164
24 301 44 340 51 l32 6 0 -47 c0 -70 7 -50 21 55 8 60 17 95 25 98 19 7 18 67
-1 83 -11 10 -15 36 -15 114 0 55 -7 147 -14 203 -7 56 -11 114 -9 128 3 14
-2 36 -12 51 -9 14 -22 42 -29 61 -12 35 -12 35 43 88 31 28 83 67 116 85 208
116 405 354 475 575 30 97 38 258 17 342 -22 84 -70 177 -104 201 -27 18 -146
62 -167 62 -6 -1 12 -13 39 -27z m-2976 -2097 c9 -7 41 -21 71 -30 82 -24 150
-66 187 -114 27 -36 33 -52 33 -94 0 -59 -31 -120 -77 -154 -34 -25 -108 -64
-122 -64 -6 0 -36 33 -67 73 -73 92 -77 96 -68 73 5 -14 4 -17 -5 -12 -7 4
-23 5 -37 2 -18 -5 -24 -13 -24 -36 0 -16 -4 -40 -10 -54 l-10 -26 -140 0
-140 0 -6 28 c-10 43 -16 46 -30 21 -20 -36 -17 -49 12 -49 25 0 25 -2 19 -42
-9 -51 -6 -47 -31 -51 -33 -5 -51 -21 -63 -57 -9 -30 -22 -41 -77 -68 -38 -19
-64 -27 -62 -20 3 7 11 30 18 50 13 35 14 36 27 18 20 -28 51 -26 59 4 8 33
-13 69 -36 63 -17 -4 -17 -2 -5 34 8 22 19 47 24 57 10 16 10 16 11 -1 0 -23
29 -34 41 -16 14 22 11 66 -6 83 -8 8 -15 16 -15 19 0 2 24 21 54 43 l54 39
54 148 53 147 149 0 c113 0 153 -3 165 -14z m-398 -176 c-31 -83 -46 -110 -62
-110 -17 0 -9 81 11 119 18 36 68 86 77 77 2 -2 -10 -40 -26 -86z m342 -277
c-7 -2 -21 -2 -30 0 -10 3 -4 5 12 5 17 0 24 -2 18 -5z m-921 -526 c1 -15 6
-27 10 -27 4 0 8 -4 8 -9 0 -5 -9 -7 -20 -4 -14 4 -18 12 -16 27 3 11 5 27 5
35 1 23 11 7 13 -22z"/>
<path d="M2552 2574 c-25 -17 -29 -46 -8 -64 21 -17 56 -9 73 17 13 19 12 24
-6 42 -25 25 -30 26 -59 5z"/>
<path d="M4616 2188 c-66 -49 -61 -54 51 -43 70 6 73 8 67 28 -8 27 -33 57
-48 57 -7 0 -38 -19 -70 -42z"/>
<path d="M4755 2076 c-4 -28 -5 -89 -3 -136 l3 -85 60 -3 c38 -1 55 1 46 7
-11 7 -10 11 5 20 17 10 17 11 -6 12 -23 1 -23 2 5 9 17 4 24 8 18 9 -9 1 -13
19 -13 54 0 32 -7 67 -19 90 -12 24 -15 37 -7 38 6 0 0 5 -14 10 -20 8 -22 12
-10 19 11 7 4 9 -22 8 -37 -1 -37 -2 -43 -52z"/>
</g>
</svg>
